<svg width="29" height="29" fill="none" xmlns="http://www.w3.org/2000/svg"><rect x=".48" width="28.096" height="28.096" rx="3.902" fill="#F24D21"/><path d="M21.866 12.574c-2.612 5.53-3.462 5.53-3.968 5.53h-4.995c-1.75 0-3.09-1.028-3.415-2.621-.01-.05-1-4.903-1.252-6.26-.125-.664-.44-1.108-1.577-1.108a.936.936 0 110-1.873c1.886 0 3.1.937 3.418 2.637.25 1.342 1.236 6.18 1.246 6.23.2.977 1.075 1.123 1.58 1.123h4.748c.51-.548 1.673-2.66 2.521-4.458a.936.936 0 111.694.8zm-9.588 6.155a1.56 1.56 0 100 3.122 1.56 1.56 0 000-3.122zm5.62 0a1.56 1.56 0 100 3.122 1.56 1.56 0 000-3.122zm-3.02-5.092c.062.05.139.075.216.075a.344.344 0 00.216-.075c.062-.05 1.765-1.71 2.694-3.093a.347.347 0 00-.288-.543h-1.39s-.135-2.679-.224-2.803c-.129-.183-.66-.308-1.01-.308s-.89.125-1.02.308c-.087.124-.204 2.803-.204 2.803H12.46a.349.349 0 00-.29.543c.93 1.383 2.646 3.044 2.707 3.093z" fill="#fff"/></svg>