<svg width="59" height="48" fill="none" xmlns="http://www.w3.org/2000/svg"><path d="M46.686 19.63c3.554-1.37 7.447.678 8.63 4.298 1.622 4.956-2.6 9.774-7.814 9.871-9.053.17-15.816 3.38-24.507 11.725-.572.55-1.54.167-1.56-.625a.914.914 0 01.092-.421C28.625 29.957 35.1 24.093 46.686 19.629zM31.615 4.345c2.538-1.763 6-.898 7.63 1.728 2.232 3.595-.169 8.204-4.26 9.284-7.104 1.876-11.817 5.708-17.062 13.958-.346.543-1.181.428-1.35-.193a.74.74 0 01-.008-.35c2.8-12.811 6.776-18.68 15.05-24.427zm-19.627.471c-.777-2.203-3.284-3.203-5.444-2.313-2.958 1.22-3.523 5.108-1.49 7.579 3.528 4.29 4.725 8.725 4.296 16.104-.028.486.535.785.913.479a.56.56 0 00.16-.211c3.945-9.097 4.1-14.454 1.565-21.638z" fill="#fff"/></svg>