<svg width="47" height="44" fill="none" xmlns="http://www.w3.org/2000/svg"><path d="M6.667 10.668l1.3 4.267 5.04-.236-4.235 2.4 1.813 4.122-3.918-2.783-3.919 2.783L4.562 17.1.326 14.699l5.04.236 1.3-4.267zM40 0l1.302 4.267 5.039-.236-4.235 2.4 1.813 4.122-3.918-2.783-3.919 2.783 1.814-4.121L33.66 4.03l5.04.236L40 0zm0 32.332l1.302 4.267 5.039-.236-4.235 2.4 1.813 4.122-3.918-2.783-3.919 2.783 1.814-4.121-4.236-2.401 5.04.236 1.3-4.267zM28.333 10.668l2.602 7.924 10.08-.438-8.472 4.459 3.627 7.653-7.837-5.168-7.837 5.168 3.627-7.653-8.47-4.46 10.078.439 2.602-7.924z" fill="#fff"/></svg>