<svg width="45" height="40" fill="none" xmlns="http://www.w3.org/2000/svg"><g clip-path="url(#clip0_603_3560)"><path d="M5.625 5h33.75a2 2 0 011.326.488c.352.313.549.737.549 1.179v26.666c0 .442-.197.866-.55 1.179a2 2 0 01-1.325.488H5.625a2 2 0 01-1.326-.488 1.578 1.578 0 01-.549-1.179V6.667c0-.442.198-.866.55-1.179A2 2 0 015.624 5zm16.988 14.472L10.59 10.397l-2.428 2.54 14.475 10.925L36.85 12.928l-2.45-2.521-11.785 9.065h-.002z" fill="#fff"/></g><defs><clipPath id="clip0_603_3560"><path fill="#fff" d="M0 0h45v40H0z"/></clipPath></defs></svg>