<svg width="42" height="42" fill="none" xmlns="http://www.w3.org/2000/svg"><g clip-path="url(#clip0_7505_1664)"><path d="M36.75 28.735v6.188a1.75 1.75 0 01-1.627 1.746c-.765.053-1.39.081-1.873.081-15.465 0-28-12.535-28-28 0-.483.026-1.108.08-1.872A1.75 1.75 0 017.077 5.25h6.188a.875.875 0 01.871.787c.04.403.078.723.113.966a24.328 24.328 0 002.114 7.002.797.797 0 01-.258.992l-3.776 2.699a22.833 22.833 0 0011.977 11.977L27 25.903a.808.808 0 011.002-.26 24.325 24.325 0 007 2.108c.244.035.564.074.963.112a.875.875 0 01.786.872h-.002z" fill="#fff"/></g><defs><clipPath id="clip0_7505_1664"><path fill="#fff" d="M0 0h42v42H0z"/></clipPath></defs></svg>