<svg width="29" height="29" fill="none" xmlns="http://www.w3.org/2000/svg"><rect x=".6" width="28.096" height="28.096" rx="3.902" fill="#3C3C3C"/><path d="M18.652 15.941a2.59 2.59 0 00-1.857.784l-4.08-2.382a2.586 2.586 0 00.008-1.416l4.05-2.294a2.59 2.59 0 001.88.808 2.603 2.603 0 002.599-2.6 2.603 2.603 0 00-2.6-2.599 2.602 2.602 0 00-2.6 2.6c0 .24.036.47.097.692l-4.05 2.294a2.589 2.589 0 00-1.879-.808 2.602 2.602 0 00-2.599 2.6 2.602 2.602 0 002.6 2.599c.726 0 1.383-.3 1.856-.784l4.08 2.382c-.067.23-.105.473-.105.724 0 1.434 1.167 2.6 2.6 2.6s2.6-1.166 2.6-2.6c0-1.433-1.167-2.6-2.6-2.6z" fill="#fff"/></svg>