<svg width="40" height="40" fill="none" xmlns="http://www.w3.org/2000/svg"><path d="M19.512 0C8.756 0 0 8.755 0 19.517 0 30.275 8.756 39.03 19.512 39.03c10.759 0 19.512-8.756 19.512-19.513C39.024 8.755 30.271 0 19.512 0zm0 37.15c-9.721 0-17.632-7.91-17.632-17.634S9.79 1.88 19.512 1.88c9.722 0 17.632 7.912 17.632 17.636S29.234 37.15 19.512 37.15z" fill="#fff"/><path d="M20.447 18.146c-2.588-1.1-3.494-1.871-3.494-3.386 0-1.217.67-2.586 2.959-2.586 1.901 0 3.117.687 3.742 1.04l.742-1.96c-.892-.504-2.108-.982-3.86-1.038V7.328h-1.873V10.3c-2.705.45-4.454 2.32-4.454 4.784 0 2.586 1.873 3.981 4.9 5.171 2.2.892 3.17 1.903 3.166 3.536.004 1.697-1.236 2.913-3.342 2.913-1.666 0-3.213-.592-4.25-1.274l-.712 1.987c1.037.742 2.793 1.278 4.512 1.31v2.97h1.873v-3.09c3.06-.475 4.695-2.676 4.695-5.05 0-2.644-1.544-4.16-4.604-5.411z" fill="#fff"/></svg>