<svg width="43" height="33" fill="none" xmlns="http://www.w3.org/2000/svg"><path d="M36.817 0c-.15 0-.298.01-.444.023C36.336.013 36.3 0 36.26 0H14.814a5.234 5.234 0 00-5.228 5.228v22.008H.436a.435.435 0 00-.436.436A5.235 5.235 0 005.228 32.9a.432.432 0 00.279-.107.43.43 0 00.277.107h21.448a5.235 5.235 0 005.228-5.228c0-.04-.013-.075-.022-.111.01-.037.022-.072.022-.111V5.664h9.15c.24 0 .436-.194.436-.435A5.234 5.234 0 0036.817 0zm-9.585 32.029a4.362 4.362 0 01-4.357-4.358.435.435 0 00-.436-.435H10.457V5.228A4.362 4.362 0 0114.814.871h19.119a5.227 5.227 0 00-2.344 4.357V27.45c0 .04.012.075.022.111-.01.037-.022.072-.022.11a4.362 4.362 0 01-4.357 4.359z" fill="#fff"/><path d="M27.776 23.418h-12.2a.435.435 0 100 .871h12.2a.435.435 0 100-.871zm0-4.355h-12.2a.435.435 0 100 .87h12.2a.435.435 0 100-.87zm0-4.36h-12.2a.435.435 0 100 .872h12.2a.435.435 0 100-.872zm0-4.355h-12.2a.435.435 0 100 .871h12.2a.436.436 0 100-.871zm0-4.356h-12.2a.435.435 0 100 .872h12.2a.436.436 0 100-.872z" fill="#fff"/></svg>