<svg width="56" height="27" fill="none" xmlns="http://www.w3.org/2000/svg"><path d="M19.643 16.922c-2.63 0-4.77 2.14-4.77 4.769 0 2.63 2.14 4.769 4.77 4.769 2.63 0 4.77-2.14 4.77-4.77a4.775 4.775 0 00-4.77-4.768zm0 6.694a1.927 1.927 0 01-1.925-1.925c0-1.061.863-1.925 1.925-1.925 1.061 0 1.925.864 1.925 1.925a1.927 1.927 0 01-1.925 1.925zm26.695-6.694c-2.63 0-4.77 2.14-4.77 4.769 0 2.63 2.14 4.769 4.77 4.769 2.63 0 4.77-2.14 4.77-4.77a4.775 4.775 0 00-4.77-4.768zm0 6.694a1.927 1.927 0 01-1.925-1.925c0-1.061.864-1.925 1.925-1.925s1.925.864 1.925 1.925a1.927 1.927 0 01-1.925 1.925z" fill="#fff"/><path d="M35.125 0H15.017a4.984 4.984 0 00-4.978 4.978v16.526a1.422 1.422 0 002.845 0V4.978c0-1.176.957-2.133 2.133-2.133h20.108c1.177 0 2.134.957 2.134 2.133v12.97a2.136 2.136 0 01-2.134 2.134h-8.28a1.422 1.422 0 100 2.844h8.28a4.984 4.984 0 004.978-4.978V4.978A4.984 4.984 0 0035.125 0zm20.197 14.558l-3.347-6.88a1.422 1.422 0 00-1.279-.8h-7.623a1.422 1.422 0 100 2.845h6.734l2.814 5.785v5.995a1.422 1.422 0 002.845 0V15.18c0-.215-.05-.429-.144-.623zm-48.684-.605H.71a.712.712 0 000 1.423h5.927a.711.711 0 000-1.423zm0 3.629h-3.2a.711.711 0 000 1.423h3.2a.711.711 0 000-1.423z" fill="#fff"/><path d="M33.602 15.615a.711.711 0 00.71-.711V8.325c0-2.124-1.136-3.2-3.377-3.2h-7.822a.711.711 0 100 1.423h7.822c1.635 0 1.956.651 1.956 1.777v6.58c0 .391.318.71.71.71z" fill="#fff"/></svg>